<mxfile host="app.diagrams.net" modified="2024-05-28T20:20:29.845Z" agent="Mozilla/5.0 (Windows NT 10.0; Win64; x64) AppleWebKit/537.36 (KHTML, like Gecko) Chrome/124.0.0.0 Safari/537.36" version="24.4.9" etag="tlrRgR7e1KowVkEErWSi" type="github">
  <diagram name="Page-1" id="VhGL97i2MGJ3Omj0kkBw">
    <mxGraphModel>
      <root>
        <mxCell id="0" />
        <mxCell id="1" parent="0" />
      </root>
    </mxGraphModel>
  </diagram>
</mxfile>
